<svg width="127" height="20" viewBox="0 0 127 20" fill="none" xmlns="http://www.w3.org/2000/svg">
<path d="M12.703 19.7462H8.83249V11.4594C8.83249 10.4357 8.65905 9.67005 8.31218 9.16244C7.97377 8.64636 7.43655 8.38832 6.70051 8.38832C5.71066 8.38832 4.99154 8.75211 4.54315 9.4797C4.09475 10.2073 3.87056 11.4044 3.87056 13.0711V19.7462H0V5.55838H2.95685L3.47716 7.3731H3.69289C4.0736 6.72166 4.62352 6.21404 5.34264 5.85025C6.06176 5.478 6.88663 5.29188 7.81726 5.29188C9.94078 5.29188 11.379 5.98562 12.132 7.3731H12.4746C12.8553 6.7132 13.4137 6.20135 14.1497 5.83756C14.8942 5.47377 15.7318 5.29188 16.6624 5.29188C18.2699 5.29188 19.4839 5.70643 20.3046 6.53553C21.1337 7.35618 21.5482 8.67597 21.5482 10.4949V19.7462H17.665V11.4594C17.665 10.4357 17.4915 9.67005 17.1447 9.16244C16.8063 8.64636 16.269 8.38832 15.533 8.38832C14.5854 8.38832 13.8748 8.72673 13.401 9.40355C12.9357 10.0804 12.703 11.1548 12.703 12.6269V19.7462Z" fill="black"/>
<path d="M34.5431 19.7462L33.7944 17.8173H33.6929C33.0415 18.6379 32.3689 19.209 31.6751 19.5305C30.9898 19.8435 30.0931 20 28.9848 20C27.6227 20 26.5482 19.6108 25.7614 18.8325C24.9831 18.0541 24.5939 16.9459 24.5939 15.5076C24.5939 14.0017 25.1184 12.8934 26.1675 12.1827C27.225 11.4636 28.8156 11.066 30.9391 10.9898L33.401 10.9137V10.2919C33.401 8.85364 32.665 8.13452 31.1929 8.13452C30.0592 8.13452 28.7267 8.47716 27.1954 9.16244L25.9137 6.54822C27.5465 5.69374 29.357 5.2665 31.3452 5.2665C33.2487 5.2665 34.7081 5.68105 35.7233 6.51015C36.7386 7.33926 37.2462 8.59983 37.2462 10.2919V19.7462H34.5431ZM33.401 13.1726L31.9035 13.2233C30.7783 13.2572 29.9408 13.4602 29.3909 13.8325C28.8409 14.2047 28.566 14.7716 28.566 15.533C28.566 16.6244 29.192 17.17 30.4442 17.17C31.3409 17.17 32.0558 16.912 32.5888 16.3959C33.1303 15.8799 33.401 15.1946 33.401 14.3401V13.1726Z" fill="black"/>
<path d="M45.1142 19.7462H41.2436V0H45.1142V19.7462Z" fill="black"/>
<path d="M55.0634 8.04568C54.2428 8.04568 53.5998 8.30795 53.1345 8.83249C52.6692 9.34856 52.4027 10.0846 52.335 11.0406H57.7665C57.7496 10.0846 57.5 9.34856 57.0178 8.83249C56.5355 8.30795 55.8841 8.04568 55.0634 8.04568ZM55.6091 20C53.3249 20 51.5398 19.3697 50.2538 18.1091C48.9678 16.8486 48.3249 15.0635 48.3249 12.7538C48.3249 10.3765 48.9171 8.54061 50.1015 7.24619C51.2944 5.94332 52.9399 5.29188 55.0381 5.29188C57.0431 5.29188 58.6041 5.86294 59.7208 7.00508C60.8376 8.14721 61.3959 9.72504 61.3959 11.7386V13.6168H52.2462C52.2885 14.7166 52.6142 15.5753 53.2233 16.1929C53.8325 16.8105 54.687 17.1193 55.7868 17.1193C56.6413 17.1193 57.4492 17.0305 58.2107 16.8528C58.9721 16.6751 59.7673 16.3917 60.5964 16.0025V18.9975C59.9196 19.3359 59.1963 19.5854 58.4264 19.7462C57.6565 19.9154 56.7174 20 55.6091 20Z" fill="black"/>
<path d="M67.9188 19.7462L62.5127 5.55838H66.5609L69.302 13.6421C69.6066 14.6658 69.7969 15.6345 69.8731 16.5482H69.9492C69.9915 15.736 70.1819 14.7673 70.5203 13.6421L73.2487 5.55838H77.2969L71.8909 19.7462H67.9188Z" fill="black"/>
<path d="M79.1751 1.89086C79.1751 0.630288 79.8773 0 81.2817 0C82.6861 0 83.3883 0.630288 83.3883 1.89086C83.3883 2.49154 83.2106 2.96108 82.8553 3.29949C82.5084 3.62944 81.9839 3.79442 81.2817 3.79442C79.8773 3.79442 79.1751 3.1599 79.1751 1.89086ZM83.2106 19.7462H79.3401V5.55838H83.2106V19.7462Z" fill="black"/>
<path d="M93.0457 20C88.6294 20 86.4213 17.5761 86.4213 12.7284C86.4213 10.3173 87.022 8.47716 88.2233 7.20812C89.4247 5.93063 91.1464 5.29188 93.3883 5.29188C95.0296 5.29188 96.5017 5.61337 97.8046 6.25635L96.6624 9.25127C96.0533 9.00592 95.4864 8.80711 94.9619 8.65482C94.4374 8.49408 93.9128 8.41371 93.3883 8.41371C91.3748 8.41371 90.368 9.84349 90.368 12.703C90.368 15.478 91.3748 16.8655 93.3883 16.8655C94.1328 16.8655 94.8223 16.7682 95.4568 16.5736C96.0914 16.3706 96.7259 16.0575 97.3604 15.6345V18.9467C96.7343 19.3443 96.0998 19.6193 95.4568 19.7716C94.8223 19.9239 94.0186 20 93.0457 20Z" fill="black"/>
<path d="M113.756 19.7462H109.886V11.4594C109.886 9.41201 109.124 8.38832 107.602 8.38832C106.519 8.38832 105.736 8.75635 105.254 9.49239C104.772 10.2284 104.53 11.4213 104.53 13.0711V19.7462H100.66V0H104.53V4.02284C104.53 4.33587 104.501 5.07191 104.442 6.23096L104.353 7.3731H104.556C105.419 5.98562 106.789 5.29188 108.667 5.29188C110.334 5.29188 111.599 5.74027 112.462 6.63706C113.325 7.53384 113.756 8.8198 113.756 10.4949V19.7462Z" fill="black"/>
<path d="M118.172 2.41963C118.172 1.82155 118.657 1.33672 119.255 1.33672H125.752C126.35 1.33672 126.835 1.82155 126.835 2.41963V8.91709C126.835 9.51516 126.35 10 125.752 10H119.255C118.657 10 118.172 9.51516 118.172 8.91709V2.41963Z" fill="black"/>
</svg>
