<svg width="148" height="46" viewBox="0 0 148 46" fill="none" xmlns="http://www.w3.org/2000/svg">
<path d="M1 8.5C1 7.67157 1.67157 7 2.5 7H14.5C15.3284 7 16 7.67157 16 8.5V20.5C16 21.3284 15.3284 22 14.5 22H2.5C1.67157 22 1 21.3284 1 20.5V8.5Z" fill="black"/>
<path d="M40.2464 7.18102C42.0538 7.18102 43.4854 7.72184 44.5412 8.8035C45.6149 9.86712 46.1518 11.4716 46.1518 13.6168V21.9456H41.9643V14.2658C41.9643 13.1121 41.7227 12.2558 41.2396 11.6969C40.7743 11.12 40.1033 10.8316 39.2264 10.8316C38.2422 10.8316 37.4637 11.1561 36.8911 11.8051C36.3185 12.436 36.0321 13.3825 36.0321 14.6444V21.9456H31.8447V14.2658C31.8447 11.9763 30.9321 10.8316 29.1068 10.8316C28.1405 10.8316 27.371 11.1561 26.7983 11.8051C26.2257 12.436 25.9394 13.3825 25.9394 14.6444V21.9456H21.752V7.39735H25.7515V9.07391C26.2883 8.46097 26.9415 7.99226 27.711 7.66776C28.4984 7.34326 29.3573 7.18102 30.2879 7.18102C31.3079 7.18102 32.2295 7.38833 33.0526 7.80297C33.8758 8.19957 34.5379 8.78547 35.039 9.56065C35.6295 8.80349 36.3721 8.2176 37.2669 7.80297C38.1795 7.38833 39.1727 7.18102 40.2464 7.18102Z" fill="black"/>
<path d="M55.7299 7.18102C57.9668 7.18102 59.6847 7.72184 60.8837 8.8035C62.0826 9.86712 62.6821 11.4806 62.6821 13.6439V21.9456H58.7631V20.1338C57.9757 21.4859 56.5083 22.1619 54.3609 22.1619C53.2514 22.1619 52.2851 21.9726 51.4619 21.594C50.6567 21.2155 50.0393 20.6927 49.6098 20.0256C49.1803 19.3586 48.9656 18.6015 48.9656 17.7542C48.9656 16.4021 49.4667 15.3385 50.4688 14.5633C51.4888 13.7881 53.0546 13.4005 55.1662 13.4005H58.4947C58.4947 12.4811 58.2173 11.778 57.6626 11.2913C57.1078 10.7865 56.2757 10.5341 55.1662 10.5341C54.3967 10.5341 53.6362 10.6603 52.8846 10.9127C52.1509 11.1471 51.5246 11.4716 51.0056 11.8862L49.5024 8.9387C50.2898 8.37985 51.2293 7.94719 52.3209 7.64072C53.4304 7.33425 54.5667 7.18102 55.7299 7.18102ZM55.4078 19.3226C56.1236 19.3226 56.7589 19.1603 57.3136 18.8358C57.8684 18.4933 58.262 17.9975 58.4947 17.3485V15.8613H55.6225C53.9046 15.8613 53.0457 16.4291 53.0457 17.5649C53.0457 18.1057 53.2514 18.5384 53.663 18.8629C54.0925 19.1693 54.6741 19.3226 55.4078 19.3226Z" fill="black"/>
<path d="M66.4719 1.88092H70.6593V21.9456H66.4719V1.88092Z" fill="black"/>
<path d="M88.6916 14.7255C88.6916 14.7796 88.6648 15.1582 88.6111 15.8613H77.6862C77.883 16.7626 78.3483 17.4747 79.082 17.9975C79.8157 18.5203 80.7283 18.7817 81.8199 18.7817C82.5715 18.7817 83.2336 18.6736 83.8063 18.4572C84.3968 18.2229 84.9426 17.8623 85.4437 17.3756L87.6716 19.8093C86.3116 21.3777 84.3252 22.1619 81.7126 22.1619C80.0841 22.1619 78.6436 21.8464 77.3909 21.2155C76.1383 20.5665 75.172 19.6741 74.4919 18.5384C73.8119 17.4026 73.4719 16.1137 73.4719 14.6715C73.4719 13.2473 73.803 11.9673 74.4651 10.8316C75.1451 9.67783 76.0667 8.78547 77.2299 8.1545C78.4109 7.50551 79.7262 7.18102 81.1757 7.18102C82.5894 7.18102 83.8689 7.48749 85.0142 8.10042C86.1595 8.71336 87.0542 9.59671 87.6984 10.7505C88.3606 11.8862 88.6916 13.2112 88.6916 14.7255ZM81.2026 10.3719C80.2541 10.3719 79.4578 10.6423 78.8136 11.1831C78.1694 11.724 77.7757 12.4631 77.6325 13.4005H84.7458C84.6026 12.4811 84.2089 11.751 83.5647 11.2102C82.9205 10.6513 82.1331 10.3719 81.2026 10.3719Z" fill="black"/>
<path d="M105.551 7.39735L99.458 21.9456H95.1363L89.0699 7.39735H93.3916L97.3911 17.2945L101.525 7.39735H105.551Z" fill="black"/>
<path d="M107.26 7.39735H111.447V21.9456H107.26V7.39735ZM109.354 5.36925C108.584 5.36925 107.958 5.14391 107.475 4.69322C106.991 4.24253 106.75 3.68367 106.75 3.01666C106.75 2.34964 106.991 1.79078 107.475 1.3401C107.958 0.889407 108.584 0.664062 109.354 0.664062C110.123 0.664062 110.749 0.880393 111.233 1.31306C111.716 1.74572 111.957 2.28654 111.957 2.93553C111.957 3.63861 111.716 4.2245 111.233 4.69322C110.749 5.14391 110.123 5.36925 109.354 5.36925Z" fill="black"/>
<path d="M122.313 22.1619C120.774 22.1619 119.387 21.8464 118.152 21.2155C116.935 20.5665 115.978 19.6741 115.28 18.5384C114.6 17.4026 114.26 16.1137 114.26 14.6715C114.26 13.2293 114.6 11.9403 115.28 10.8045C115.978 9.66882 116.935 8.78547 118.152 8.1545C119.387 7.50551 120.774 7.18102 122.313 7.18102C123.834 7.18102 125.158 7.50551 126.285 8.1545C127.431 8.78547 128.263 9.69586 128.782 10.8857L125.534 12.6434C124.782 11.3093 123.699 10.6423 122.286 10.6423C121.194 10.6423 120.291 11.0029 119.575 11.724C118.859 12.4451 118.501 13.4276 118.501 14.6715C118.501 15.9154 118.859 16.8979 119.575 17.619C120.291 18.3401 121.194 18.7006 122.286 18.7006C123.717 18.7006 124.8 18.0336 125.534 16.6996L128.782 18.4843C128.263 19.638 127.431 20.5394 126.285 21.1884C125.158 21.8374 123.834 22.1619 122.313 22.1619Z" fill="black"/>
<path d="M139.865 7.18102C141.655 7.18102 143.095 7.72184 144.187 8.8035C145.296 9.88515 145.851 11.4896 145.851 13.6168V21.9456H141.664V14.2658C141.664 13.1121 141.413 12.2558 140.912 11.6969C140.411 11.12 139.686 10.8316 138.738 10.8316C137.682 10.8316 136.841 11.1651 136.215 11.8321C135.588 12.4811 135.275 13.4546 135.275 14.7526V21.9456H131.088V1.88092H135.275V8.91166C135.83 8.35281 136.501 7.92916 137.288 7.64072C138.076 7.33425 138.935 7.18102 139.865 7.18102Z" fill="black"/>
<path d="M116.788 29.3279V34.8211C116.028 33.639 114.786 33.0132 113.336 33.0132C110.748 33.0132 108.815 34.8907 108.815 37.6547C108.815 40.4187 110.748 42.3135 113.336 42.3135C114.838 42.3135 116.097 41.6529 116.839 40.4187V42.2266H118.013V29.3279H116.788ZM113.44 41.2183C111.507 41.2183 110.058 39.7929 110.058 37.6547C110.058 35.5165 111.507 34.091 113.44 34.091C115.355 34.091 116.805 35.5165 116.805 37.6547C116.805 39.7929 115.355 41.2183 113.44 41.2183Z" fill="black"/>
<path d="M128.655 33.0828V34.8385C127.896 33.639 126.584 33.0132 125.066 33.0132C122.477 33.0132 120.51 34.8037 120.51 37.4287C120.51 40.0536 122.477 41.8789 125.066 41.8789C126.55 41.8789 127.844 41.2705 128.603 40.1058V41.2705C128.603 43.5304 127.551 44.5908 125.256 44.5908C123.858 44.5908 122.547 44.1214 121.684 43.3391L121.063 44.2779C122.012 45.1818 123.634 45.6859 125.29 45.6859C128.293 45.6859 129.828 44.2605 129.828 41.114V33.0828H128.655ZM125.187 40.7837C123.185 40.7837 121.753 39.4104 121.753 37.4287C121.753 35.4469 123.185 34.091 125.187 34.091C127.188 34.091 128.638 35.4469 128.638 37.4287C128.638 39.4104 127.188 40.7837 125.187 40.7837Z" fill="black"/>
<path d="M137.603 40.7837C137.258 41.0966 136.758 41.2531 136.257 41.2531C135.239 41.2531 134.687 40.662 134.687 39.5843V34.1258H137.448V33.0828H134.687V31.0836H133.462V33.0828H131.84V34.1258H133.462V39.6538C133.462 41.34 134.411 42.3135 136.119 42.3135C136.827 42.3135 137.551 42.1049 138.034 41.6703L137.603 40.7837Z" fill="black"/>
<path d="M140.265 42.2266H141.49V29.3279H140.265V42.2266Z" fill="black"/>
<path d="M145.451 42.3656C144.979 42.3656 144.583 42.2034 144.26 41.8789C143.938 41.5544 143.777 41.1488 143.777 40.662C143.777 40.1637 143.938 39.7639 144.26 39.4626C144.583 39.1497 144.979 38.9932 145.451 38.9932C145.923 38.9932 146.32 39.1497 146.642 39.4626C146.964 39.7639 147.125 40.1637 147.125 40.662C147.125 41.1488 146.964 41.5544 146.642 41.8789C146.32 42.2034 145.923 42.3656 145.451 42.3656Z" fill="black"/>
<path d="M11.3879 34.5005L15.9541 42.468H6.82163L11.3879 34.5005Z" fill="#C3421A"/>
<ellipse cx="70.346" cy="37.3978" rx="1.91732" ry="1.93152" fill="#C3421A"/>
<path fill-rule="evenodd" clip-rule="evenodd" d="M1.98434 42.2266H5.68283L4.35353 36.9011L0.875 37.7823L1.98434 42.2266Z" fill="#DFB405"/>
<path fill-rule="evenodd" clip-rule="evenodd" d="M24.2096 42.2265C24.2885 41.9178 24.3304 41.5942 24.3304 41.2608C24.3304 39.1273 22.6136 37.3977 20.4958 37.3977C18.378 37.3977 16.6611 39.1273 16.6611 41.2608C16.6611 41.5942 16.7031 41.9178 16.7819 42.2265H24.2096Z" fill="#4F6ABF"/>
<path fill-rule="evenodd" clip-rule="evenodd" d="M25.6465 42.2265H29.9777L31.8613 39.4231L28.8909 37.3977L25.6465 42.2265Z" fill="#DFB405"/>
<path fill-rule="evenodd" clip-rule="evenodd" d="M40.0829 42.2265L35.1053 33.5413L31.999 35.348L35.9412 42.2265H40.0829Z" fill="#539083"/>
<path fill-rule="evenodd" clip-rule="evenodd" d="M49.0093 42.2265L52.703 36.2226L47.1407 32.7498L41.3105 42.2265H49.0093Z" fill="#C3421A"/>
<path fill-rule="evenodd" clip-rule="evenodd" d="M68.4917 42.2266L64.0638 34.5005L50.7803 42.2266H68.4917Z" fill="#444444"/>
<path fill-rule="evenodd" clip-rule="evenodd" d="M78.3332 42.2266L76.6727 39.3293L71.6914 42.2266H78.3332Z" fill="#539083"/>
<path fill-rule="evenodd" clip-rule="evenodd" d="M84.8368 42.2265L75.4276 25.8086L72.3213 27.6153L80.6951 42.2265H84.8368Z" fill="#DFB405"/>
<path fill-rule="evenodd" clip-rule="evenodd" d="M90.8924 42.2265L85.9149 33.5413L82.8086 35.348L86.7507 42.2265H90.8924Z" fill="#4F6ABF"/>
<path fill-rule="evenodd" clip-rule="evenodd" d="M100.905 42.2267L95.4504 32.709L89.7832 36.0052L93.3488 42.2267H100.905Z" fill="#C3421A"/>
</svg>
