<svg width="180" height="68" viewBox="0 0 180 68" fill="none" xmlns="http://www.w3.org/2000/svg">
<rect width="180" height="68" fill="#E5E5E5"/>
<rect width="1440" height="864" transform="translate(-630 -32)" fill="#F7F7F7"/>
<path d="M27.3879 45.5006L31.9541 53.4681H22.8216L27.3879 45.5006Z" fill="#C3421A"/>
<ellipse cx="86.346" cy="48.3978" rx="1.91732" ry="1.93152" fill="#C3421A"/>
<path d="M16.875 19.3928C16.875 18.6185 17.4955 17.9908 18.261 17.9908H29.3491C30.1146 17.9908 30.7351 18.6185 30.7351 19.3928V30.608C30.7351 31.3823 30.1146 32.01 29.3491 32.01H18.261C17.4955 32.01 16.875 31.3823 16.875 30.608V19.3928Z" fill="black"/>
<path d="M56.2464 18.1811C58.0538 18.1811 59.4854 18.722 60.5412 19.8036C61.6149 20.8672 62.1518 22.4717 62.1518 24.617V32.9457H57.9643V25.266C57.9643 24.1122 57.7227 23.2559 57.2396 22.697C56.7743 22.1202 56.1033 21.8317 55.2264 21.8317C54.2422 21.8317 53.4637 22.1562 52.8911 22.8052C52.3185 23.4362 52.0321 24.3826 52.0321 25.6445V32.9457H47.8447V25.266C47.8447 22.9765 46.9321 21.8317 45.1068 21.8317C44.1405 21.8317 43.371 22.1562 42.7983 22.8052C42.2257 23.4362 41.9394 24.3826 41.9394 25.6445V32.9457H37.752V18.3975H41.7515V20.074C42.2883 19.4611 42.9415 18.9924 43.711 18.6679C44.4984 18.3434 45.3573 18.1811 46.2879 18.1811C47.3079 18.1811 48.2295 18.3885 49.0526 18.8031C49.8758 19.1997 50.5379 19.7856 51.039 20.5608C51.6295 19.8036 52.3721 19.2177 53.2669 18.8031C54.1795 18.3885 55.1727 18.1811 56.2464 18.1811Z" fill="black"/>
<path d="M71.7299 18.1811C73.9668 18.1811 75.6847 18.722 76.8837 19.8036C78.0826 20.8672 78.6821 22.4807 78.6821 24.644V32.9457H74.7631V31.1339C73.9757 32.486 72.5083 33.162 70.3609 33.162C69.2514 33.162 68.2851 32.9727 67.4619 32.5942C66.6567 32.2156 66.0393 31.6928 65.6098 31.0258C65.1803 30.3587 64.9656 29.6016 64.9656 28.7543C64.9656 27.4022 65.4667 26.3386 66.4688 25.5634C67.4888 24.7882 69.0546 24.4006 71.1662 24.4006H74.4947C74.4947 23.4812 74.2173 22.7782 73.6626 22.2914C73.1078 21.7866 72.2757 21.5343 71.1662 21.5343C70.3967 21.5343 69.6362 21.6605 68.8846 21.9128C68.1509 22.1472 67.5246 22.4717 67.0056 22.8863L65.5024 19.9388C66.2898 19.38 67.2293 18.9473 68.3209 18.6408C69.4304 18.3344 70.5667 18.1811 71.7299 18.1811ZM71.4078 30.3227C72.1236 30.3227 72.7589 30.1604 73.3136 29.8359C73.8684 29.4934 74.262 28.9977 74.4947 28.3487V26.8614H71.6225C69.9046 26.8614 69.0457 27.4293 69.0457 28.565C69.0457 29.1058 69.2514 29.5385 69.663 29.863C70.0925 30.1694 70.6741 30.3227 71.4078 30.3227Z" fill="black"/>
<path d="M82.4719 12.881H86.6593V32.9457H82.4719V12.881Z" fill="black"/>
<path d="M104.692 25.7257C104.692 25.7797 104.665 26.1583 104.611 26.8614H93.6862C93.883 27.7628 94.3483 28.4749 95.082 28.9977C95.8157 29.5205 96.7283 29.7819 97.8199 29.7819C98.5715 29.7819 99.2336 29.6737 99.8063 29.4574C100.397 29.223 100.943 28.8625 101.444 28.3757L103.672 30.8094C102.312 32.3778 100.325 33.162 97.7126 33.162C96.0841 33.162 94.6436 32.8465 93.3909 32.2156C92.1383 31.5666 91.172 30.6742 90.4919 29.5385C89.8119 28.4028 89.4719 27.1138 89.4719 25.6716C89.4719 24.2474 89.803 22.9674 90.4651 21.8317C91.1451 20.678 92.0667 19.7856 93.2299 19.1546C94.4109 18.5056 95.7262 18.1811 97.1757 18.1811C98.5894 18.1811 99.8689 18.4876 101.014 19.1005C102.159 19.7135 103.054 20.5968 103.698 21.7506C104.361 22.8863 104.692 24.2113 104.692 25.7257ZM97.2026 21.372C96.2541 21.372 95.4578 21.6424 94.8136 22.1833C94.1694 22.7241 93.7757 23.4632 93.6325 24.4006H100.746C100.603 23.4812 100.209 22.7511 99.5647 22.2103C98.9205 21.6514 98.1331 21.372 97.2026 21.372Z" fill="black"/>
<path d="M121.551 18.3975L115.458 32.9457H111.136L105.07 18.3975H109.392L113.391 28.2946L117.525 18.3975H121.551Z" fill="black"/>
<path d="M123.26 18.3975H127.447V32.9457H123.26V18.3975ZM125.354 16.3694C124.584 16.3694 123.958 16.144 123.475 15.6933C122.991 15.2427 122.75 14.6838 122.75 14.0168C122.75 13.3498 122.991 12.7909 123.475 12.3402C123.958 11.8895 124.584 11.6642 125.354 11.6642C126.123 11.6642 126.749 11.8805 127.233 12.3132C127.716 12.7458 127.957 13.2867 127.957 13.9357C127.957 14.6387 127.716 15.2246 127.233 15.6933C126.749 16.144 126.123 16.3694 125.354 16.3694Z" fill="black"/>
<path d="M138.313 33.162C136.774 33.162 135.387 32.8465 134.152 32.2156C132.935 31.5666 131.978 30.6742 131.28 29.5385C130.6 28.4028 130.26 27.1138 130.26 25.6716C130.26 24.2294 130.6 22.9404 131.28 21.8047C131.978 20.6689 132.935 19.7856 134.152 19.1546C135.387 18.5056 136.774 18.1811 138.313 18.1811C139.834 18.1811 141.158 18.5056 142.285 19.1546C143.431 19.7856 144.263 20.696 144.782 21.8858L141.534 23.6435C140.782 22.3094 139.699 21.6424 138.286 21.6424C137.194 21.6424 136.291 22.003 135.575 22.7241C134.859 23.4452 134.501 24.4277 134.501 25.6716C134.501 26.9155 134.859 27.898 135.575 28.6191C136.291 29.3402 137.194 29.7007 138.286 29.7007C139.717 29.7007 140.8 29.0337 141.534 27.6997L144.782 29.4844C144.263 30.6382 143.431 31.5395 142.285 32.1885C141.158 32.8375 139.834 33.162 138.313 33.162Z" fill="black"/>
<path d="M155.865 18.1811C157.655 18.1811 159.095 18.722 160.187 19.8036C161.296 20.8853 161.851 22.4897 161.851 24.617V32.9457H157.664V25.266C157.664 24.1122 157.413 23.2559 156.912 22.697C156.411 22.1202 155.686 21.8317 154.738 21.8317C153.682 21.8317 152.841 22.1652 152.215 22.8322C151.588 23.4812 151.275 24.4547 151.275 25.7527V32.9457H147.088V12.881H151.275V19.9118C151.83 19.3529 152.501 18.9293 153.288 18.6408C154.076 18.3344 154.935 18.1811 155.865 18.1811Z" fill="black"/>
<path d="M132.788 40.328V45.8212C132.028 44.6392 130.786 44.0133 129.336 44.0133C126.748 44.0133 124.815 45.8908 124.815 48.6548C124.815 51.4188 126.748 53.3136 129.336 53.3136C130.838 53.3136 132.097 52.653 132.839 51.4188V53.2267H134.013V40.328H132.788ZM129.44 52.2184C127.507 52.2184 126.058 50.793 126.058 48.6548C126.058 46.5166 127.507 45.0911 129.44 45.0911C131.355 45.0911 132.805 46.5166 132.805 48.6548C132.805 50.793 131.355 52.2184 129.44 52.2184Z" fill="black"/>
<path d="M144.655 44.0829V45.8386C143.896 44.6392 142.584 44.0133 141.066 44.0133C138.477 44.0133 136.51 45.8039 136.51 48.4288C136.51 51.0537 138.477 52.879 141.066 52.879C142.55 52.879 143.844 52.2706 144.603 51.1059V52.2706C144.603 54.5305 143.551 55.5909 141.256 55.5909C139.858 55.5909 138.547 55.1215 137.684 54.3393L137.063 55.278C138.012 56.1819 139.634 56.6861 141.29 56.6861C144.293 56.6861 145.828 55.2606 145.828 52.1141V44.0829H144.655ZM141.187 51.7839C139.185 51.7839 137.753 50.4105 137.753 48.4288C137.753 46.4471 139.185 45.0911 141.187 45.0911C143.188 45.0911 144.638 46.4471 144.638 48.4288C144.638 50.4105 143.188 51.7839 141.187 51.7839Z" fill="black"/>
<path d="M153.603 51.7839C153.258 52.0968 152.758 52.2532 152.257 52.2532C151.239 52.2532 150.687 51.6622 150.687 50.5844V45.1259H153.448V44.0829H150.687V42.0838H149.462V44.0829H147.84V45.1259H149.462V50.6539C149.462 52.3401 150.411 53.3136 152.119 53.3136C152.827 53.3136 153.551 53.105 154.034 52.6704L153.603 51.7839Z" fill="black"/>
<path d="M156.265 53.2267H157.49V40.328H156.265V53.2267Z" fill="black"/>
<path d="M161.451 53.3658C160.979 53.3658 160.583 53.2035 160.26 52.879C159.938 52.5545 159.777 52.1489 159.777 51.6622C159.777 51.1638 159.938 50.764 160.26 50.4627C160.583 50.1498 160.979 49.9933 161.451 49.9933C161.923 49.9933 162.32 50.1498 162.642 50.4627C162.964 50.764 163.125 51.1638 163.125 51.6622C163.125 52.1489 162.964 52.5545 162.642 52.879C162.32 53.2035 161.923 53.3658 161.451 53.3658Z" fill="black"/>
<path fill-rule="evenodd" clip-rule="evenodd" d="M17.9843 53.2267H21.6828L20.3535 47.9012L16.875 48.7824L17.9843 53.2267Z" fill="#DFB405"/>
<path fill-rule="evenodd" clip-rule="evenodd" d="M40.2096 53.2268C40.2885 52.9181 40.3304 52.5945 40.3304 52.261C40.3304 50.1275 38.6136 48.3979 36.4958 48.3979C34.378 48.3979 32.6611 50.1275 32.6611 52.261C32.6611 52.5945 32.7031 52.9181 32.7819 53.2268H40.2096Z" fill="#4F6ABF"/>
<path fill-rule="evenodd" clip-rule="evenodd" d="M41.6465 53.2267H45.9777L47.8613 50.4232L44.8909 48.3978L41.6465 53.2267Z" fill="#DFB405"/>
<path fill-rule="evenodd" clip-rule="evenodd" d="M56.0829 53.2266L51.1053 44.5414L47.999 46.3481L51.9412 53.2266H56.0829Z" fill="#539083"/>
<path fill-rule="evenodd" clip-rule="evenodd" d="M65.0093 53.2267L68.703 47.2227L63.1407 43.7499L57.3105 53.2267H65.0093Z" fill="#C3421A"/>
<path fill-rule="evenodd" clip-rule="evenodd" d="M84.4917 53.2267L80.0638 45.5006L66.7803 53.2267H84.4917Z" fill="#444444"/>
<path fill-rule="evenodd" clip-rule="evenodd" d="M94.3332 53.2268L92.6727 50.3295L87.6914 53.2268H94.3332Z" fill="#539083"/>
<path fill-rule="evenodd" clip-rule="evenodd" d="M100.837 53.2268L91.4276 36.8088L88.3213 38.6155L96.6951 53.2268H100.837Z" fill="#DFB405"/>
<path fill-rule="evenodd" clip-rule="evenodd" d="M106.892 53.2266L101.915 44.5414L98.8086 46.3481L102.751 53.2266H106.892Z" fill="#4F6ABF"/>
<path fill-rule="evenodd" clip-rule="evenodd" d="M116.905 53.2267L111.45 43.709L105.783 47.0052L109.349 53.2267H116.905Z" fill="#C3421A"/>
<g opacity="0.3">
<path d="M27.3879 45.5006L31.9541 53.4681H22.8216L27.3879 45.5006Z" fill="#C3421A"/>
<ellipse cx="86.345" cy="48.3978" rx="1.91732" ry="1.93152" fill="#C3421A"/>
<path d="M17 19.5C17 18.6716 17.6716 18 18.5 18H30.5C31.3284 18 32 18.6716 32 19.5V31.5C32 32.3284 31.3284 33 30.5 33H18.5C17.6716 33 17 32.3284 17 31.5V19.5Z" fill="black"/>
<path d="M56.2464 18.1811C58.0538 18.1811 59.4854 18.722 60.5412 19.8036C61.6149 20.8672 62.1518 22.4717 62.1518 24.617V32.9457H57.9643V25.266C57.9643 24.1122 57.7227 23.2559 57.2396 22.697C56.7743 22.1202 56.1033 21.8317 55.2264 21.8317C54.2422 21.8317 53.4637 22.1562 52.8911 22.8052C52.3185 23.4362 52.0321 24.3826 52.0321 25.6445V32.9457H47.8447V25.266C47.8447 22.9765 46.9321 21.8317 45.1068 21.8317C44.1405 21.8317 43.371 22.1562 42.7983 22.8052C42.2257 23.4362 41.9394 24.3826 41.9394 25.6445V32.9457H37.752V18.3975H41.7515V20.074C42.2883 19.4611 42.9415 18.9924 43.711 18.6679C44.4984 18.3434 45.3573 18.1811 46.2879 18.1811C47.3079 18.1811 48.2295 18.3885 49.0526 18.8031C49.8758 19.1997 50.5379 19.7856 51.039 20.5608C51.6295 19.8036 52.3721 19.2177 53.2669 18.8031C54.1795 18.3885 55.1727 18.1811 56.2464 18.1811Z" fill="black"/>
<path d="M71.7299 18.1811C73.9668 18.1811 75.6847 18.722 76.8837 19.8036C78.0826 20.8672 78.6821 22.4807 78.6821 24.644V32.9457H74.7631V31.1339C73.9757 32.486 72.5083 33.162 70.3609 33.162C69.2514 33.162 68.2851 32.9727 67.4619 32.5942C66.6567 32.2156 66.0393 31.6928 65.6098 31.0258C65.1803 30.3587 64.9656 29.6016 64.9656 28.7543C64.9656 27.4022 65.4667 26.3386 66.4688 25.5634C67.4888 24.7882 69.0546 24.4006 71.1662 24.4006H74.4947C74.4947 23.4812 74.2173 22.7782 73.6626 22.2914C73.1078 21.7866 72.2757 21.5343 71.1662 21.5343C70.3967 21.5343 69.6362 21.6605 68.8846 21.9128C68.1509 22.1472 67.5246 22.4717 67.0056 22.8863L65.5024 19.9388C66.2898 19.38 67.2293 18.9473 68.3209 18.6408C69.4304 18.3344 70.5667 18.1811 71.7299 18.1811ZM71.4078 30.3227C72.1236 30.3227 72.7589 30.1604 73.3136 29.8359C73.8684 29.4934 74.262 28.9977 74.4947 28.3487V26.8614H71.6225C69.9046 26.8614 69.0457 27.4293 69.0457 28.565C69.0457 29.1058 69.2514 29.5385 69.663 29.863C70.0925 30.1694 70.6741 30.3227 71.4078 30.3227Z" fill="black"/>
<path d="M82.4719 12.881H86.6593V32.9457H82.4719V12.881Z" fill="black"/>
<path d="M104.692 25.7257C104.692 25.7797 104.665 26.1583 104.611 26.8614H93.6862C93.883 27.7628 94.3483 28.4749 95.082 28.9977C95.8157 29.5205 96.7283 29.7819 97.8199 29.7819C98.5715 29.7819 99.2336 29.6737 99.8063 29.4574C100.397 29.223 100.943 28.8625 101.444 28.3757L103.672 30.8094C102.312 32.3778 100.325 33.162 97.7126 33.162C96.0841 33.162 94.6436 32.8465 93.3909 32.2156C92.1383 31.5666 91.172 30.6742 90.4919 29.5385C89.8119 28.4028 89.4719 27.1138 89.4719 25.6716C89.4719 24.2474 89.803 22.9674 90.4651 21.8317C91.1451 20.678 92.0667 19.7856 93.2299 19.1546C94.4109 18.5056 95.7262 18.1811 97.1757 18.1811C98.5894 18.1811 99.8689 18.4876 101.014 19.1005C102.159 19.7135 103.054 20.5968 103.698 21.7506C104.361 22.8863 104.692 24.2113 104.692 25.7257ZM97.2026 21.372C96.2541 21.372 95.4578 21.6424 94.8136 22.1833C94.1694 22.7241 93.7757 23.4632 93.6325 24.4006H100.746C100.603 23.4812 100.209 22.7511 99.5647 22.2103C98.9205 21.6514 98.1331 21.372 97.2026 21.372Z" fill="black"/>
<path d="M121.551 18.3975L115.458 32.9457H111.136L105.07 18.3975H109.392L113.391 28.2946L117.525 18.3975H121.551Z" fill="black"/>
<path d="M123.26 18.3975H127.447V32.9457H123.26V18.3975ZM125.354 16.3694C124.584 16.3694 123.958 16.144 123.475 15.6933C122.991 15.2427 122.75 14.6838 122.75 14.0168C122.75 13.3498 122.991 12.7909 123.475 12.3402C123.958 11.8895 124.584 11.6642 125.354 11.6642C126.123 11.6642 126.749 11.8805 127.233 12.3132C127.716 12.7458 127.957 13.2867 127.957 13.9357C127.957 14.6387 127.716 15.2246 127.233 15.6933C126.749 16.144 126.123 16.3694 125.354 16.3694Z" fill="black"/>
<path d="M138.313 33.162C136.774 33.162 135.387 32.8465 134.152 32.2156C132.935 31.5666 131.978 30.6742 131.28 29.5385C130.6 28.4028 130.26 27.1138 130.26 25.6716C130.26 24.2294 130.6 22.9404 131.28 21.8047C131.978 20.6689 132.935 19.7856 134.152 19.1546C135.387 18.5056 136.774 18.1811 138.313 18.1811C139.834 18.1811 141.158 18.5056 142.285 19.1546C143.431 19.7856 144.263 20.696 144.782 21.8858L141.534 23.6435C140.782 22.3094 139.699 21.6424 138.286 21.6424C137.194 21.6424 136.291 22.003 135.575 22.7241C134.859 23.4452 134.501 24.4277 134.501 25.6716C134.501 26.9155 134.859 27.898 135.575 28.6191C136.291 29.3402 137.194 29.7007 138.286 29.7007C139.717 29.7007 140.8 29.0337 141.534 27.6997L144.782 29.4844C144.263 30.6382 143.431 31.5395 142.285 32.1885C141.158 32.8375 139.834 33.162 138.313 33.162Z" fill="black"/>
<path d="M155.865 18.1811C157.655 18.1811 159.095 18.722 160.187 19.8036C161.296 20.8853 161.851 22.4897 161.851 24.617V32.9457H157.664V25.266C157.664 24.1122 157.413 23.2559 156.912 22.697C156.411 22.1202 155.686 21.8317 154.738 21.8317C153.682 21.8317 152.841 22.1652 152.215 22.8322C151.588 23.4812 151.275 24.4547 151.275 25.7527V32.9457H147.088V12.881H151.275V19.9118C151.83 19.3529 152.501 18.9293 153.288 18.6408C154.076 18.3344 154.935 18.1811 155.865 18.1811Z" fill="black"/>
<path d="M132.788 40.328V45.8212C132.028 44.6392 130.786 44.0133 129.336 44.0133C126.748 44.0133 124.815 45.8908 124.815 48.6548C124.815 51.4188 126.748 53.3136 129.336 53.3136C130.838 53.3136 132.097 52.653 132.839 51.4188V53.2267H134.013V40.328H132.788ZM129.44 52.2184C127.507 52.2184 126.058 50.793 126.058 48.6548C126.058 46.5166 127.507 45.0911 129.44 45.0911C131.355 45.0911 132.805 46.5166 132.805 48.6548C132.805 50.793 131.355 52.2184 129.44 52.2184Z" fill="black"/>
<path d="M144.655 44.0829V45.8386C143.896 44.6392 142.584 44.0133 141.066 44.0133C138.477 44.0133 136.51 45.8039 136.51 48.4288C136.51 51.0537 138.477 52.879 141.066 52.879C142.55 52.879 143.844 52.2706 144.603 51.1059V52.2706C144.603 54.5305 143.551 55.5909 141.256 55.5909C139.858 55.5909 138.547 55.1215 137.684 54.3393L137.063 55.278C138.012 56.1819 139.634 56.6861 141.29 56.6861C144.293 56.6861 145.828 55.2606 145.828 52.1141V44.0829H144.655ZM141.187 51.7839C139.185 51.7839 137.753 50.4105 137.753 48.4288C137.753 46.4471 139.185 45.0911 141.187 45.0911C143.188 45.0911 144.638 46.4471 144.638 48.4288C144.638 50.4105 143.188 51.7839 141.187 51.7839Z" fill="black"/>
<path d="M153.603 51.7839C153.258 52.0968 152.758 52.2532 152.257 52.2532C151.239 52.2532 150.687 51.6622 150.687 50.5844V45.1259H153.448V44.0829H150.687V42.0838H149.462V44.0829H147.84V45.1259H149.462V50.6539C149.462 52.3401 150.411 53.3136 152.119 53.3136C152.827 53.3136 153.551 53.105 154.034 52.6704L153.603 51.7839Z" fill="black"/>
<path d="M156.265 53.2267H157.49V40.328H156.265V53.2267Z" fill="black"/>
<path d="M161.451 53.3658C160.979 53.3658 160.583 53.2035 160.26 52.879C159.938 52.5545 159.777 52.1489 159.777 51.6622C159.777 51.1638 159.938 50.764 160.26 50.4627C160.583 50.1498 160.979 49.9933 161.451 49.9933C161.923 49.9933 162.32 50.1498 162.642 50.4627C162.964 50.764 163.125 51.1638 163.125 51.6622C163.125 52.1489 162.964 52.5545 162.642 52.879C162.32 53.2035 161.923 53.3658 161.451 53.3658Z" fill="black"/>
<path fill-rule="evenodd" clip-rule="evenodd" d="M17.9843 53.2267H21.6828L20.3535 47.9012L16.875 48.7824L17.9843 53.2267Z" fill="#DFB405"/>
<path fill-rule="evenodd" clip-rule="evenodd" d="M40.2096 53.2268C40.2885 52.9181 40.3304 52.5945 40.3304 52.261C40.3304 50.1275 38.6136 48.3979 36.4958 48.3979C34.378 48.3979 32.6611 50.1275 32.6611 52.261C32.6611 52.5945 32.7031 52.9181 32.7819 53.2268H40.2096Z" fill="#4F6ABF"/>
<path fill-rule="evenodd" clip-rule="evenodd" d="M41.6465 53.2267H45.9777L47.8613 50.4232L44.8909 48.3978L41.6465 53.2267Z" fill="#DFB405"/>
<path fill-rule="evenodd" clip-rule="evenodd" d="M56.0829 53.2266L51.1053 44.5414L47.999 46.3481L51.9412 53.2266H56.0829Z" fill="#539083"/>
<path fill-rule="evenodd" clip-rule="evenodd" d="M65.0084 53.2267L68.702 47.2227L63.1398 43.7499L57.3096 53.2267H65.0084Z" fill="#C3421A"/>
<path fill-rule="evenodd" clip-rule="evenodd" d="M84.4907 53.2267L80.0629 45.5006L66.7793 53.2267H84.4907Z" fill="#444444"/>
<path fill-rule="evenodd" clip-rule="evenodd" d="M94.3322 53.2268L92.6718 50.3295L87.6904 53.2268H94.3322Z" fill="#539083"/>
<path fill-rule="evenodd" clip-rule="evenodd" d="M100.836 53.2268L91.4266 36.8088L88.3203 38.6155L96.6941 53.2268H100.836Z" fill="#DFB405"/>
<path fill-rule="evenodd" clip-rule="evenodd" d="M106.892 53.2266L101.915 44.5414L98.8086 46.3481L102.751 53.2266H106.892Z" fill="#4F6ABF"/>
<path fill-rule="evenodd" clip-rule="evenodd" d="M116.905 53.2267L111.45 43.709L105.783 47.0052L109.349 53.2267H116.905Z" fill="#C3421A"/>
</g>
</svg>
